
<svg width="338px" height="307px" viewBox="87 103 338 307" version="1.1" xmlns="http://www.w3.org/2000/svg" xmlns:xlink="http://www.w3.org/1999/xlink">
    <defs></defs>
    <g id="Group-2" stroke="none" stroke-width="1" fill="none" fill-rule="evenodd" transform="translate(87.000000, 103.000000)">
        <path d="M168.50361,0.18907563 C75.5827641,0.18907563 0.00396843243,62.6453849 0.00396843243,139.392545 C0.00396843243,182.63756 23.6359836,222.667624 64.8481544,249.210575 C70.6222236,252.935213 78.3011403,251.327738 82.0314668,245.642763 C85.7617933,239.977392 84.1545782,232.390891 78.4201933,228.685855 C44.3313587,206.730091 24.8066711,174.188511 24.8066711,139.392545 C24.8066711,76.1521008 89.273856,24.6932773 168.50361,24.6932773 C247.733363,24.6932773 312.200548,76.1521008 312.200548,139.392545 C312.200548,202.632988 247.733363,254.091812 168.50361,254.091812 C154.891886,254.091812 141.399216,252.56275 128.382758,249.563435 L123.065058,248.328424 L70.5428549,283.712491 C64.8878387,287.535146 63.4393609,295.160854 67.2887403,300.747812 C69.7094841,304.217607 73.5985479,306.079926 77.5669803,306.079926 C79.9678819,306.079926 82.3886257,305.393808 84.5514214,303.962763 L128.12481,274.577324 C141.319847,277.262985 154.872044,278.596013 168.50361,278.596013 C261.424455,278.596013 337.003251,216.159308 337.003251,139.392545 C337.003251,62.6453849 261.424455,0.18907563 168.50361,0.18907563" id="Fill-1" fill="#2C2C46"></path>
        <path d="M141.022215,126.326904 L182.611387,114.133613 L195.985004,154.869398 L154.395832,167.062689 L141.022215,126.326904 Z M74.8089198,132.95284 C76.4161349,138.265351 81.3568333,141.715543 86.7142171,141.715543 C87.8650625,141.715543 89.0555922,141.558716 90.2461219,141.225459 L117.231462,133.305701 L130.60508,174.041486 L100.425151,182.902205 C93.8573955,184.823334 90.127069,191.645304 92.0517587,198.134017 C93.6589738,203.466131 98.5996722,206.896719 103.957056,206.896719 C105.127744,206.896719 106.298431,206.759496 107.488961,206.406635 L138.264154,197.389089 L147.470918,225.441499 C149.177344,230.616787 154.038673,233.910151 159.277004,233.910151 C160.546902,233.910151 161.836643,233.733721 163.086699,233.32205 C169.634613,231.244094 173.18636,224.324108 171.083091,217.894205 L162.054907,190.410292 L203.644079,178.197398 L213.009579,206.759496 C214.716005,211.934783 219.577335,215.228148 224.815666,215.228148 C226.065722,215.228148 227.375305,215.051718 228.625361,214.640047 C235.153432,212.562091 238.725021,205.642104 236.621752,199.212202 L227.434831,171.238205 L253.824907,163.494877 C260.392662,161.554145 264.122989,154.732175 262.198299,148.243462 C260.214083,141.75475 253.368537,138.010508 246.761097,139.970844 L219.775757,147.890602 L206.402139,107.154817 L236.562226,98.2940975 C243.129981,96.3729681 246.860308,89.5509983 244.935618,83.0622857 C242.971244,76.5735731 236.105856,72.8293311 229.498416,74.7896672 L198.743065,83.8268168 L189.536301,55.7744067 C187.41319,49.3249008 180.428749,45.8158992 173.900678,47.8742521 C167.372606,49.9718118 163.820859,56.872195 165.924128,63.3020975 L174.952312,90.8056134 L133.36314,102.998904 L123.99764,74.4564101 C121.874528,68.0265076 114.870245,64.5175059 108.381858,66.5562555 C101.853787,68.6538151 98.2821976,75.5541983 100.385467,81.9841008 L109.572388,109.977701 L83.1823122,117.721029 C76.6145565,119.642158 72.8842301,126.464128 74.8089198,132.95284 L74.8089198,132.95284 Z" id="Fill-4" fill="#2C2C46"></path>
    </g>
</svg>