<svg width="120px" height="96px" viewBox="301 3977 120 96" version="1.1" xmlns="http://www.w3.org/2000/svg" xmlns:xlink="http://www.w3.org/1999/xlink">
    <g id="Group-16" stroke="none" stroke-width="1" fill="none" fill-rule="evenodd" transform="translate(301.000000, 3977.000000)">
        <g id="Group-2-Copy-11" transform="translate(82.000000, 60.222222) scale(-1, 1) translate(-82.000000, -60.222222) translate(45.000000, 26.222222)" stroke="#2C2C46" stroke-linecap="round" fill="#2C2C46">
            <path d="M0.000871184995,30.8932884 C0.000871184995,40.4134215 5.18877783,49.2258022 14.236034,55.0690752 C15.5036082,55.8890323 17.1893511,55.5351561 18.008265,54.2836427 C18.8271789,53.0364448 18.474349,51.3663217 17.2154867,50.5506802 C9.73200759,45.7172491 5.44577741,38.5534137 5.44577741,30.8932884 C5.44577741,16.9712805 19.5981777,5.64292631 36.9913861,5.64292631 C54.3845945,5.64292631 68.5369948,16.9712805 68.5369948,30.8932884 C68.5369948,44.8152963 54.3845945,56.1436505 36.9913861,56.1436505 C34.0032216,56.1436505 31.0411926,55.8070366 28.1837058,55.1467554 L27.0163179,54.8748749 L15.4861845,62.664467 C14.2447459,63.5060019 13.9267633,65.1847561 14.7718128,66.4146917 C15.3032356,67.1785464 16.1569969,67.588525 17.0281819,67.588525 C17.5552488,67.588525 18.0866717,67.4374803 18.5614675,67.1224441 L28.1270788,60.6534144 C31.0237689,61.2446466 33.9988656,61.5381049 36.9913861,61.5381049 C57.3901828,61.5381049 73.981901,47.7930351 73.981901,30.8932884 C73.981901,13.9978573 57.3901828,0.248471917 36.9913861,0.248471917 C16.5925894,0.248471917 0.000871184995,13.9978573 0.000871184995,30.8932884 Z" id="Fill-1"></path>
        </g>
        <g id="Group-2-Copy-12">
            <path d="M6.31817888,34.0043995 C6.31817888,43.5245326 11.5060855,52.3369133 20.5533417,58.1801863 C21.8209159,59.0001434 23.5066588,58.6462672 24.3255727,57.3947538 C25.1444866,56.1475559 24.7916567,54.4774328 23.5327944,53.6617913 C16.0493153,48.8283602 11.7630851,41.6645248 11.7630851,34.0043995 C11.7630851,20.0823916 25.9154854,8.75403742 43.3086938,8.75403742 C60.7019022,8.75403742 74.8543025,20.0823916 74.8543025,34.0043995 C74.8543025,47.9264074 60.7019022,59.2547617 43.3086938,59.2547617 C40.3205293,59.2547617 37.3585003,58.9181477 34.5010135,58.2578665 L33.3336256,57.985986 L21.8034922,65.7755781 C20.5620536,66.617113 20.244071,68.2958672 21.0891205,69.5258028 C21.6205433,70.2896576 22.4743046,70.6996361 23.3454896,70.6996361 C23.8725565,70.6996361 24.4039794,70.5485914 24.8787752,70.2335552 L34.4443865,63.7645255 C37.3410766,64.3557577 40.3161733,64.649216 43.3086938,64.649216 C63.7074905,64.649216 80.2992087,50.9041463 80.2992087,34.0043995 C80.2992087,17.1089684 63.7074905,3.35958303 43.3086938,3.35958303 C22.9098971,3.35958303 6.31817888,17.1089684 6.31817888,34.0043995 Z" id="Fill-1" fill="#4CFFFA"></path>
            <path d="M19.8379091,68.5390735 C19.291496,68.9016291 18.666201,69.088525 18.0281819,69.088525 C16.9709007,69.088525 15.9740456,68.5808836 15.3597087,67.6978352 C14.3569279,66.2383279 14.7355712,64.2471059 16.2062814,63.2501552 L27.7364148,55.4605631 C27.8517014,55.3826771 27.9942271,55.3563489 28.1297309,55.3879072 L29.2962749,55.659592 C32.1210399,56.3123121 35.045472,56.6436505 37.9913861,56.6436505 C55.1297734,56.6436505 69.0369948,45.5116927 69.0369948,31.8932884 C69.0369948,18.2748841 55.1297734,7.14292631 37.9913861,7.14292631 C20.8529988,7.14292631 6.94577741,18.2748841 6.94577741,31.8932884 C6.94577741,39.3773151 11.1417898,46.3866964 18.4873669,51.13106 C19.9779531,52.0968399 20.3980221,54.0780309 19.4266554,55.5574118 C18.4560039,57.0408198 16.4613493,57.4571881 14.964763,56.4890896 C5.78043639,50.5572881 0.500871185,41.5904674 0.500871185,31.8932884 C0.500871185,14.6973712 17.3366997,0.748471917 37.9913861,0.748471917 C58.6460724,0.748471917 75.481901,14.6973712 75.481901,31.8932884 C75.481901,49.0920444 58.6478622,63.0381049 37.9913861,63.0381049 C35.0241495,63.0381049 32.0864146,62.752732 29.2336463,62.1849492 L19.8379091,68.5390735 Z" id="Fill-1" fill="#2C2C46" fill-rule="nonzero"></path>
        </g>
    </g>
</svg>
