<svg width="341px" height="322px" viewBox="847 1905 341 322" version="1.1" xmlns="http://www.w3.org/2000/svg" xmlns:xlink="http://www.w3.org/1999/xlink">
    <g id="your-flow" stroke="none" stroke-width="1" fill="none" fill-rule="evenodd" transform="translate(847.000000, 1906.000000)">
        <g id="Group-3-Copy-2" fill-rule="nonzero">
            <path d="M115.123475,56.4987802 L155.123475,6.49878019 C156.503513,4.77373245 156.223828,2.25656295 154.49878,0.876524762 C152.773732,-0.50351343 150.256563,-0.223827931 148.876525,1.50121981 L108.876525,51.5012198 C107.496487,53.2262676 107.776172,55.743437 109.50122,57.1234752 C111.226268,58.5035134 113.743437,58.2238279 115.123475,56.4987802 Z" id="Line" fill="#4CFFA5"></path>
            <path d="M150.1945,238.572234 C148.724352,239.876777 146.524257,239.919931 145.004084,238.674041 L1.71144922,121.235578 C-1.01037289,119.004852 0.267252399,114.599785 3.76025877,114.171578 L323.583626,74.9645602 C327.479518,74.4869644 329.661091,79.3216029 326.725232,81.9267529 L150.1945,238.572234 Z M311.808166,84.4679978 L14.013578,120.974517 L147.436509,230.324058 L311.808166,84.4679978 Z" id="Path-2" fill="#FBAD8F"></path>
            <path d="M119.358634,320.625088 C70.559997,320.625088 31,281.086705 31,232.312544 C31,183.538383 70.559997,144 119.358634,144 C168.157271,144 207.717268,183.538383 207.717268,232.312544 C207.717268,281.086705 168.157271,320.625088 119.358634,320.625088 Z M119.358634,312.625088 C163.739971,312.625088 199.717268,276.667448 199.717268,232.312544 C199.717268,187.95764 163.739971,152 119.358634,152 C74.9772966,152 39,187.95764 39,232.312544 C39,276.667448 74.9772966,312.625088 119.358634,312.625088 Z" id="Oval-2" fill="#4CFFFA"></path>
            <path d="M113.358634,316.625088 C64.559997,316.625088 25,277.086705 25,228.312544 C25,179.538383 64.559997,140 113.358634,140 C162.157271,140 201.717268,179.538383 201.717268,228.312544 C201.717268,277.086705 162.157271,316.625088 113.358634,316.625088 Z M113.358634,308.625088 C157.739971,308.625088 193.717268,272.667448 193.717268,228.312544 C193.717268,183.95764 157.739971,148 113.358634,148 C68.9772966,148 33,183.95764 33,228.312544 C33,272.667448 68.9772966,308.625088 113.358634,308.625088 Z" id="Oval-2" fill="#2C2C46"></path>
            <path d="M176.572081,61.1216819 C163.001784,61.1216819 152,50.1259084 152,36.560841 C152,22.9957736 163.001784,12 176.572081,12 C190.142377,12 201.144161,22.9957736 201.144161,36.560841 C201.144161,50.1259084 190.142377,61.1216819 176.572081,61.1216819 Z M176.572081,53.1216819 C185.725077,53.1216819 193.144161,45.7066514 193.144161,36.560841 C193.144161,27.4150306 185.725077,20 176.572081,20 C167.419084,20 160,27.4150306 160,36.560841 C160,45.7066514 167.419084,53.1216819 176.572081,53.1216819 Z" id="Oval-3" fill="#4CFFFA"></path>
            <path d="M257.572081,222.121682 C244.001784,222.121682 233,211.125908 233,197.560841 C233,183.995774 244.001784,173 257.572081,173 C271.142377,173 282.144161,183.995774 282.144161,197.560841 C282.144161,211.125908 271.142377,222.121682 257.572081,222.121682 Z M257.572081,214.121682 C266.725077,214.121682 274.144161,206.706651 274.144161,197.560841 C274.144161,188.415031 266.725077,181 257.572081,181 C248.419084,181 241,188.415031 241,197.560841 C241,206.706651 248.419084,214.121682 257.572081,214.121682 Z" id="Oval-3-Copy-2" fill="#4CFFFA"></path>
            <g id="Group-4-Copy-3" transform="translate(136.000000, 245.000000)" fill="#FEBCFF">
                <path d="M4.72998915,14.1622312 L12.7069355,6.51574337 C13.7930709,5.47460291 15.5491308,5.49357489 16.6211499,6.5650083 L23.536303,13.4763833 C26.5412732,16.4797117 31.408709,16.481258 34.4147586,13.4768508 L41.257392,6.6379559 C42.307395,5.5885266 44.016194,5.58847907 45.0627435,6.63445684 L51.3811075,12.9493687 C54.3829776,15.9495988 59.2430942,15.956724 62.2432074,12.9582499 L69.0627563,6.14242692 C70.1096677,5.09608746 71.8007085,5.09687215 72.8552203,6.15080783 L80.0173429,13.3090173 C80.9939204,14.2850613 82.5768328,14.2846287 83.5528767,13.3080513 C84.5289206,12.3314738 84.5284881,10.7485614 83.5519106,9.77251748 L76.389788,2.61430796 C73.3836102,-0.390227428 68.5282352,-0.392480472 65.5281886,2.60592705 L58.7086397,9.42175002 C57.6632513,10.4665673 55.9674622,10.4640812 54.9156752,9.41286887 L48.5973112,3.09795697 C45.5983174,0.100601694 40.7251835,0.100737217 37.7228243,3.10145604 L30.8801909,9.9403509 C29.8270446,10.9929218 28.1239434,10.9923808 27.0708707,9.93988343 L20.1557176,3.02850844 C17.1606379,0.0350651117 12.2970265,-0.0174799917 9.24695715,2.90623508 L1.27001085,10.5527229 C0.273272655,11.5081695 0.239799227,13.090728 1.19524585,14.0874662 C2.15069248,15.0842044 3.73325096,15.1176778 4.72998915,14.1622312 Z" id="Path-2-Copy"></path>
                <path d="M33.8191732,26.7606573 L41.7961195,19.1141695 C42.882255,18.073029 44.6383148,18.092001 45.710334,19.1634344 L52.6254871,26.0748094 C55.6304572,29.0781378 60.4978931,29.0796841 63.5039427,26.0752769 L70.346576,19.236382 C71.396579,18.1869527 73.105378,18.1869052 74.1519276,19.232883 L80.4702916,25.5477949 C83.4721617,28.5480249 88.3322782,28.5551501 91.3323915,25.556676 L98.1519403,18.740853 C99.1988518,17.6945136 100.889893,17.6952983 101.944404,18.7492339 L109.106527,25.9074435 C110.083104,26.8834874 111.666017,26.8830548 112.642061,25.9064774 C113.618105,24.9298999 113.617672,23.3469875 112.641095,22.3709436 L105.478972,15.2127341 C102.472794,12.2081987 97.6174193,12.2059456 94.6173727,15.2043532 L87.7978238,22.0201761 C86.7524353,23.0649934 85.0566462,23.0625073 84.0048592,22.011295 L77.6864953,15.6963831 C74.6875015,12.6990278 69.8143675,12.6991633 66.8120084,15.6998822 L59.969375,22.538777 C58.9162287,23.5913479 57.2131274,23.5908069 56.1600548,22.5383095 L49.2449016,15.6269346 C46.2498219,12.6334912 41.3862106,12.5809461 38.3361412,15.5046612 L30.3591949,23.151149 C29.3624567,24.1065956 29.3289833,25.6891541 30.2844299,26.6858923 C31.2398765,27.6826305 32.822435,27.7161039 33.8191732,26.7606573 Z" id="Path-2-Copy-2"></path>
            </g>
        </g>
        <g id="right-arrow-copy" transform="translate(170.000000, 118.000000) rotate(-180.000000) translate(-170.000000, -118.000000) translate(126.000000, 84.000000)" fill-rule="nonzero" fill="#2C2C46">
            <g id="Group-Copy-2" transform="translate(33.599138, 33.784818) rotate(-315.000000) translate(-33.599138, -33.784818) translate(10.099138, 10.284818)">
                <path d="M1.50990331e-13,5.36 L2.01517815e-13,41.0933333 C2.0586002e-13,44.0535796 2.38781467,46.4533333 5.33333333,46.4533333 C8.278852,46.4533333 10.6666667,44.0535796 10.6666667,41.0933333 L10.6666667,5.36 C10.6666667,2.39975374 8.278852,3.51126535e-14 5.33333333,3.90798505e-14 C2.38781467,4.30470474e-14 1.46648126e-13,2.39975374 1.50990331e-13,5.36 Z" id="Line"></path>
                <path d="M5.97059075,46.4533333 L41.5261463,46.4533333 C44.471665,46.4533333 46.8594796,44.0535796 46.8594796,41.0933333 C46.8594796,38.1330871 44.471665,35.7333333 41.5261463,35.7333333 L5.97059075,35.7333333 C3.02507208,35.7333333 0.637257416,38.1330871 0.637257416,41.0933333 C0.637257416,44.0535796 3.02507208,46.4533333 5.97059075,46.4533333 Z" id="Line"></path>
            </g>
            <path d="M11.5555556,39.3066667 L82.6666667,39.3066667 C85.6121853,39.3066667 88,36.9069129 88,33.9466667 C88,30.9864204 85.6121853,28.5866667 82.6666667,28.5866667 L11.5555556,28.5866667 C8.61003689,28.5866667 6.22222222,30.9864204 6.22222222,33.9466667 C6.22222222,36.9069129 8.61003689,39.3066667 11.5555556,39.3066667 Z" id="Line"></path>
        </g>
        <g id="right-arrow-copy-2" transform="translate(300.000000, 193.000000) rotate(-180.000000) translate(-300.000000, -193.000000) translate(260.000000, 162.000000)" fill-rule="nonzero" fill="#2C2C46">
            <g id="Group-Copy-2" transform="translate(30.566956, 30.929665) rotate(-315.000000) translate(-30.566956, -30.929665) translate(9.066956, 9.429665)">
                <path d="M-7.97584221e-13,4.88 L-7.51650145e-13,37.4133333 C-7.47702685e-13,40.1084829 2.17074061,42.2933333 4.84848485,42.2933333 C7.52622909,42.2933333 9.6969697,40.1084829 9.6969697,37.4133333 L9.6969697,4.88 C9.6969697,2.18485042 7.52622909,1.22207429e-12 4.84848485,1.22568622e-12 C2.17074061,1.22929814e-12 -8.01531681e-13,2.18485042 -7.97584221e-13,4.88 Z" id="Line"></path>
                <path d="M5.42780977,42.2933333 L37.7510421,42.2933333 C40.4287863,42.2933333 42.5995269,40.1084829 42.5995269,37.4133333 C42.5995269,34.7181838 40.4287863,32.5333333 37.7510421,32.5333333 L5.42780977,32.5333333 C2.75006553,32.5333333 0.579324924,34.7181838 0.579324924,37.4133333 C0.579324924,40.1084829 2.75006553,42.2933333 5.42780977,42.2933333 Z" id="Line"></path>
            </g>
            <path d="M10.5050505,35.7866667 L75.1515152,35.7866667 C77.8292594,35.7866667 80,33.6018162 80,30.9066667 C80,28.2115171 77.8292594,26.0266667 75.1515152,26.0266667 L10.5050505,26.0266667 C7.82730626,26.0266667 5.65656566,28.2115171 5.65656566,30.9066667 C5.65656566,33.6018162 7.82730626,35.7866667 10.5050505,35.7866667 Z" id="Line"></path>
        </g>
        <g id="right-arrow-copy-3" transform="translate(221.000000, 35.000000) rotate(-180.000000) translate(-221.000000, -35.000000) translate(181.000000, 4.000000)" fill-rule="nonzero" fill="#2C2C46">
            <g id="Group-Copy-2" transform="translate(30.566956, 30.929665) rotate(-315.000000) translate(-30.566956, -30.929665) translate(9.066956, 9.429665)">
                <path d="M-8.18900503e-13,4.88 L-7.72966427e-13,37.4133333 C-7.69018967e-13,40.1084829 2.17074061,42.2933333 4.84848485,42.2933333 C7.52622909,42.2933333 9.6969697,40.1084829 9.6969697,37.4133333 L9.6969697,4.88 C9.6969697,2.18485042 7.52622909,1.21141615e-12 4.84848485,1.21502808e-12 C2.17074061,1.21864e-12 -8.22847963e-13,2.18485042 -8.18900503e-13,4.88 Z" id="Line"></path>
                <path d="M5.42780977,42.2933333 L37.7510421,42.2933333 C40.4287863,42.2933333 42.5995269,40.1084829 42.5995269,37.4133333 C42.5995269,34.7181838 40.4287863,32.5333333 37.7510421,32.5333333 L5.42780977,32.5333333 C2.75006553,32.5333333 0.579324924,34.7181838 0.579324924,37.4133333 C0.579324924,40.1084829 2.75006553,42.2933333 5.42780977,42.2933333 Z" id="Line"></path>
            </g>
            <path d="M10.5050505,35.7866667 L75.1515152,35.7866667 C77.8292594,35.7866667 80,33.6018162 80,30.9066667 C80,28.2115171 77.8292594,26.0266667 75.1515152,26.0266667 L10.5050505,26.0266667 C7.82730626,26.0266667 5.65656566,28.2115171 5.65656566,30.9066667 C5.65656566,33.6018162 7.82730626,35.7866667 10.5050505,35.7866667 Z" id="Line"></path>
        </g>
    </g>
</svg>
